<svg width="1440" height="354" viewBox="0 0 1440 354" fill="none" xmlns="http://www.w3.org/2000/svg">
<path fill-rule="evenodd" clip-rule="evenodd" d="M13.6036 49.6777C10.2913 48.3641 8.44802 47.633 6.55712 47.9387C-0.369461 49.0661 -1.07533 63.0556 1.07775 79.169H-71V353.66H1440V79.4929C1440.26 71.9554 1437.75 65.0442 1429.66 61.2259C1422.7 57.9457 1414.95 58.5147 1403.88 59.3277C1392.84 60.1391 1378.48 61.1936 1358.3 58.9082C1338.66 56.6903 1323.08 52.0348 1291.96 42.7038C1277.13 38.2627 1269.84 35.6424 1262.39 32.9601C1256.72 30.9237 1250.96 28.8516 1241.73 25.92C1213.8 17.0485 1181.05 6.65854 1136.19 2.18286C1102.57 -1.1739 1073.6 -0.0749628 1053.79 1.60342C1013.82 4.98016 985.65 12.8126 978.399 14.9106C963.651 19.1629 957.13 22.1819 949.037 25.9284C942.49 28.9595 934.914 32.4669 921.12 37.4888L921.111 37.4921C901.023 44.8052 869.142 56.4114 825.643 61.8054C797.852 65.2535 777.036 64.6854 735.505 63.5521L735.196 63.5437C709.661 62.8444 684.127 62.0451 651.792 57.1698C628.859 53.7132 607.072 48.8778 597.531 46.7599C586.857 44.3926 579.402 42.5425 573.124 40.9844C562.71 38.3999 555.532 36.6185 542.264 34.6116C526.419 32.2112 513.242 31.2093 497.367 30.0022L497.023 29.9761C477.664 28.5175 462.329 27.998 451.782 27.6583C435.927 27.1388 428.017 26.899 417.609 27.0789C403.697 27.3386 391.589 28.3976 367.372 30.5555L367.372 30.5555C348.915 32.1939 339.687 33.0131 328.168 34.6116C314.742 36.4898 304.473 38.4079 293.995 40.406C285.108 42.0954 280.004 43.197 273.143 44.6778C269.049 45.5613 264.331 46.5798 257.809 47.9387C239.318 51.795 228.771 53.9929 216.593 56.0509C205.665 57.9091 185.438 61.2859 158.308 63.0042C134.473 64.5227 114.559 64.1831 101.028 63.5836C94.0548 63.2839 78.7896 62.4647 59.8121 60.107C48.0162 58.6284 40.8693 57.7093 31.6754 55.4715C22.5857 53.2399 17.2194 51.1116 13.6036 49.6777Z" fill="#A0B183"/>
</svg>
