<svg width="379" height="216" viewBox="0 0 379 216" fill="none" xmlns="http://www.w3.org/2000/svg">
<path fill-rule="evenodd" clip-rule="evenodd" d="M3.58038 30.1937C2.70862 29.395 2.22347 28.9504 1.7258 29.1363C-0.0972443 29.8218 -0.283028 38.3288 0.283653 48.1274H-18.6868V215.045H379V48.3239C379.068 43.7405 378.408 39.538 376.279 37.2162C374.446 35.2215 372.408 35.5675 369.495 36.0619C366.588 36.5553 362.81 37.1966 357.496 35.8068C352.328 34.4581 348.228 31.6271 340.037 25.9529C336.134 23.2523 334.216 21.6589 332.253 20.0277C330.763 18.7895 329.246 17.5294 326.815 15.7467C319.465 10.352 310.845 4.03386 299.038 1.3122C290.19 -0.729047 282.565 -0.0607825 277.351 0.95984C266.832 3.01323 259.418 7.77614 257.509 9.05192C253.628 11.6377 251.911 13.4736 249.781 15.7519C248.058 17.5951 246.064 19.7279 242.434 22.7817L242.431 22.7836C237.144 27.2307 228.753 34.2885 217.305 37.5686C209.99 39.6654 204.511 39.3199 193.581 38.6308L193.499 38.6257C186.779 38.2004 180.058 37.7144 171.548 34.7497C165.512 32.6477 159.778 29.7074 157.267 28.4194C154.457 26.9799 152.495 25.8549 150.843 24.9074C148.102 23.3358 146.213 22.2525 142.721 21.0321C138.551 19.5724 135.082 18.9631 130.904 18.2291L130.814 18.2132C125.718 17.3262 121.683 17.0103 118.907 16.8038C114.734 16.4879 112.652 16.3421 109.912 16.4514C106.251 16.6094 103.064 17.2533 96.6904 18.5656C91.8326 19.5619 89.4037 20.0601 86.3721 21.0321C82.8383 22.1742 80.1355 23.3406 77.3779 24.5556C75.0388 25.583 73.6955 26.2529 71.8898 27.1533C70.8124 27.6906 69.5704 28.3099 67.854 29.1363C62.9871 31.4813 60.2112 32.8178 57.0061 34.0693C54.1298 35.1993 48.8063 37.2527 41.6657 38.2976C35.3926 39.221 30.1513 39.0145 26.5901 38.65C24.7547 38.4677 20.737 37.9695 15.7422 36.5358C12.6376 35.6367 10.7566 35.0778 8.33679 33.7169C5.94443 32.3599 4.53204 31.0657 3.58038 30.1937Z" fill="#A0B183"/>
</svg>
